<?xml version="1.0" ?><svg viewBox="0 0 64 64" xmlns="http://www.w3.org/2000/svg"><defs><style>.cls-1{fill:#414042;}.cls-2{fill:#fff200;}.cls-3{fill:#ffbe00;}.cls-4{fill:#231f20;}</style></defs><title/><g id="gifts"><rect class="cls-1" height="22" rx="3" width="40" x="12" y="18"/><path class="cls-2" d="M50,11H14a2,2,0,0,0-2,2v8H52V13A2,2,0,0,0,50,11Z"/><path class="cls-1" d="M32,9.23V11H28.39L26.48,7.94A2,2,0,0,0,24.78,7H24a2,2,0,0,0,0,4H18.35a5.79,5.79,0,0,1-.21-3.24A6.3,6.3,0,0,1,24.36,3h.42a6,6,0,0,1,5.09,2.82Z"/><path class="cls-3" d="M50,11H32V21H52V13A2,2,0,0,0,50,11Z"/><path class="cls-4" d="M52,21V37a3,3,0,0,1-3,3H32V21Z"/><path class="cls-4" d="M45.65,11H40a2,2,0,0,0,0-4h-.78a2,2,0,0,0-1.7.94L35.61,11H32V9.23l2.13-3.41A6,6,0,0,1,39.22,3h.42a6.3,6.3,0,0,1,6.22,4.76A5.79,5.79,0,0,1,45.65,11Z"/><rect class="cls-1" height="20" rx="2.45" width="28" x="4" y="40"/><rect class="cls-4" height="10" rx="2.45" width="28" x="32" y="50"/><rect class="cls-3" height="10" rx="2.45" width="24" x="32" y="40"/></g></svg>