<?xml version="1.0" ?><svg viewBox="0 0 64 64" xmlns="http://www.w3.org/2000/svg"><defs><style>.cls-1{fill:#414042;}.cls-2{fill:#231f20;}.cls-3{fill:#fff200;}.cls-4{fill:#ffbe00;}</style></defs><title/><g id="store-shop"><path class="cls-1" d="M56,29V54a6,6,0,0,1-6,6H14a6,6,0,0,1-6-6V29Z"/><path class="cls-2" d="M56,29V54a6,6,0,0,1-6,6H32V29Z"/><path class="cls-2" d="M46.43,13.9l-2.8-6C43.08,6.68,42.26,6,41.38,6H22.14A2.61,2.61,0,0,0,20,7.66l-3.15,6A18.25,18.25,0,0,0,15,22v7c0,1.1.52,2,1.16,2H46.84c.64,0,1.16-.9,1.16-2V21.65A18.91,18.91,0,0,0,46.43,13.9Z"/><path class="cls-3" d="M32,43h0a7,7,0,0,1,7,7V60a0,0,0,0,1,0,0H25a0,0,0,0,1,0,0V50A7,7,0,0,1,32,43Z"/><path class="cls-4" d="M60,21.65V29a2,2,0,0,1-2,2H43V23.37a16.44,16.44,0,0,0-2.17-8.16L35.57,6h13a4.94,4.94,0,0,1,3.9,1.88l4.82,6A12.4,12.4,0,0,1,60,21.65Z"/><path class="cls-3" d="M3,21.65V29a2,2,0,0,0,2,2H20V23.37a16.44,16.44,0,0,1,2.17-8.16L27.43,6h-13a4.94,4.94,0,0,0-3.9,1.88l-4.82,6A12.4,12.4,0,0,0,3,21.65Z"/><path class="cls-4" d="M39,50V60H32V43a7,7,0,0,1,7,7Z"/></g></svg>